# xmcd
#
# Track frame offsets: 
#        150
#        13208
#        27872
#        41294
#        55445
#        71205
#        84426
#        99521
#        117024
#        131964
#
# Disc length: 1998 seconds
#
# Revision: 0
# Processed by: cddbd v1.5.2PL0 Copyright (c) Steve Scherf et al.
# Submitted via: ExactAudioCopyFreeDBPlugin 1.0
#
DISCID=8507cc0a
DTITLE=Three quarter moon - Southbound
DYEAR=2015
DGENRE=Bluegrass
TTITLE0=Spring Band
TTITLE1=Ghouls
TTITLE2=Kids
TTITLE3=Levittown
TTITLE4=Kerosene
TTITLE5=Rollin'
TTITLE6=Sleep and Drive
TTITLE7=Washing Machine Blues
TTITLE8=The Ballad of Green-Eyed Joan
TTITLE9=Southbound
EXTD=
EXTT0=
EXTT1=
EXTT2=
EXTT3=
EXTT4=
EXTT5=
EXTT6=
EXTT7=
EXTT8=
EXTT9=
PLAYORDER=
